<svg xmlns="http://www.w3.org/2000/svg" viewBox="0 0 64 64" width="256" height="256">
  <defs>
    <linearGradient id="grWhite" x1="0" y1="0" x2="0" y2="1"><stop offset="0" stop-color="#ffffff"/><stop offset="1" stop-color="#d3d0cc"/></linearGradient>
  </defs>
  <g>
    <rect x="8" y="20" width="48" height="24" rx="12" fill="url(#grWhite)" stroke="#bdb9b3" stroke-width="0.8"/>
    <path d="M8 33 q24 5 48 0" fill="none" stroke="#c0263c" stroke-width="3"/>
    <path d="M32 27 C35 31 37 34 37 36 a5.2 5.2 0 1 1 -10.4 0 C26.6 34 29 31 32 27Z" fill="#a6071e"/>
    <rect x="19" y="20" width="2.4" height="24" fill="#c9c5bf"/>
    <rect x="43" y="20" width="2.4" height="24" fill="#c9c5bf"/>
    <path d="M13 44 l-2 5 M51 44 l2 5" stroke="#7d0517" stroke-width="2.6" stroke-linecap="round"/>
    <rect x="9" y="48" width="46" height="3.4" rx="1.5" fill="#7d0517"/>
    <rect x="13" y="43" width="4" height="4" rx="1" fill="#9a9690"/>
  </g>
</svg>
