<?xml version="1.0" encoding="UTF-8"?>
<svg version="1.1" xmlns="http://www.w3.org/2000/svg" width="512" height="512">
<path d="M0 0 C3.3721544 2.81448828 5.18432321 5.85893062 7.14453125 9.75561523 C7.73194092 10.91459824 8.31935059 12.07358124 8.92456055 13.26768494 C9.55434012 14.53108882 10.18364098 15.79473141 10.8125 17.05859375 C11.46940096 18.36715283 12.12671604 19.6755041 12.78442383 20.98365784 C14.16143072 23.72727363 15.53242102 26.47379406 16.89941406 29.22241211 C18.63535872 32.71137198 20.38729322 36.19200358 22.1441803 39.67045498 C23.50696795 42.37384153 24.86016549 45.08194628 26.21078491 47.79142952 C26.85191897 49.07450769 27.49605091 50.35609311 28.14346313 51.63601494 C34.17077984 63.57313007 38.77113302 74.96313132 38.5 88.5 C38.48573975 89.49974854 38.47147949 90.49949707 38.45678711 91.52954102 C37.90237909 110.974889 27.13322001 125.67537281 17.1484375 141.66479492 C11.14402634 151.30522984 5.45399142 161.12229085 -0.23388672 170.95166016 C-3.14407272 175.97468786 -6.07288746 180.98682402 -9 186 C-10.16675776 187.99994686 -11.33342439 189.99994688 -12.5 192 C-14.83333333 196 -17.16666667 200 -19.5 204 C-20.0779834 204.99088623 -20.6559668 205.98177246 -21.25146484 207.00268555 C-22.41304613 208.99385191 -23.57482856 210.98490094 -24.73681641 212.97583008 C-27.73298657 218.1100195 -30.72516849 223.24647263 -33.7109375 228.38671875 C-36.63391704 233.41732242 -39.56787159 238.44133922 -42.51220703 243.45947266 C-43.42577515 245.01946443 -44.33631327 246.58124137 -45.24169922 248.14599609 C-54.97639085 264.96203743 -66.07754043 275.57436586 -85 281 C-89.33086613 281.8602047 -93.41936695 282.12185025 -97.83154297 282.11352539 C-98.81309105 282.11374443 -98.81309105 282.11374443 -99.81446838 282.1139679 C-101.95707626 282.11327647 -104.09959499 282.10552052 -106.2421875 282.09765625 C-107.73576815 282.09578933 -109.22934942 282.09436672 -110.72293091 282.09336853 C-114.63885207 282.08956494 -118.55473568 282.07975324 -122.47064209 282.06866455 C-126.47261039 282.05840388 -130.47458481 282.05386096 -134.4765625 282.04882812 C-142.3177255 282.0381289 -150.15885807 282.0210786 -158 282 C-157.9685791 283.28632324 -157.9685791 283.28632324 -157.93652344 284.59863281 C-157.86823473 287.78918472 -157.81814487 290.97936346 -157.78027344 294.17041016 C-157.76019358 295.5497668 -157.73292334 296.92903869 -157.69824219 298.30810547 C-157.64957183 300.29356979 -157.62913582 302.27966254 -157.609375 304.265625 C-157.58842773 305.45961914 -157.56748047 306.65361328 -157.54589844 307.88378906 C-158.08914234 311.61172735 -159.07605607 312.71494666 -162 315 C-164.90295805 316.45147903 -166.77261779 316.37239025 -170 316 C-174.78884613 312.52612391 -178.06978174 308.58916459 -181.5 303.8125 C-182.54792848 302.38427758 -183.59747318 300.95723996 -184.6484375 299.53125 C-185.46586426 298.41943359 -185.46586426 298.41943359 -186.29980469 297.28515625 C-189.1804246 293.41344424 -192.15271312 289.61401771 -195.125 285.8125 C-196.30998419 284.2943398 -197.49488168 282.77611191 -198.6796875 281.2578125 C-199.24397461 280.5349707 -199.80826172 279.81212891 -200.38964844 279.06738281 C-204.28602331 274.06518414 -208.13962505 269.02999186 -212 264 C-213.66609253 261.83289153 -215.33305199 259.66645047 -217 257.5 C-217.83334905 256.41667876 -218.66668241 255.33334544 -219.5 254.25 C-219.9125 253.71375 -220.325 253.1775 -220.75 252.625 C-227.625 243.6875 -227.625 243.6875 -234.5 234.75 C-234.91258057 234.21366943 -235.32516113 233.67733887 -235.75024414 233.12475586 C-236.58285808 232.04230894 -237.41537775 230.9597895 -238.24780273 229.87719727 C-240.76291073 226.60652387 -243.28123737 223.33837176 -245.80322266 220.07299805 C-246.63763277 218.98930023 -247.46937706 217.90354419 -248.29833984 216.81567383 C-250.36516812 214.10383418 -252.45945709 211.42758366 -254.62890625 208.796875 C-261.57792012 200.14051343 -261.57792012 200.14051343 -262.125 195.875 C-261.36546642 190.03985315 -255.93308298 185.93908769 -252 182 C-250.53165362 180.38404208 -249.07315137 178.75908039 -247.625 177.125 C-243.80526291 172.87936887 -239.95022233 168.66689139 -236.08642578 164.46142578 C-233.20606171 161.32368887 -230.34483753 158.16996182 -227.5 155 C-223.72462783 150.79315673 -219.91019552 146.62325147 -216.0859375 142.4609375 C-213.20577393 139.32332914 -210.34468386 136.16979059 -207.5 133 C-203.72462783 128.79315673 -199.91019552 124.62325147 -196.0859375 120.4609375 C-193.20577393 117.32332914 -190.34468386 114.16979059 -187.5 111 C-186.00074908 109.33265947 -184.50069195 107.66604365 -183 106 C-182.52965332 105.47776855 -182.05930664 104.95553711 -181.57470703 104.41748047 C-180.07395041 102.75445362 -178.56874679 101.09555438 -177.0625 99.4375 C-176.58941406 98.91220703 -176.11632812 98.38691406 -175.62890625 97.84570312 C-171.28987637 93.08412237 -171.28987637 93.08412237 -167.125 92.8125 C-164.05371571 92.99677706 -162.51381686 93.2941957 -160 95 C-152.41008316 106.38487526 -158 122.31708283 -158 136 C-132.59 135.67 -107.18 135.34 -81 135 C-91.79673841 115.05912365 -91.79673841 115.05912365 -102.76318359 95.21484375 C-105.01245454 91.18693494 -107.25661019 87.15618641 -109.5 83.125 C-109.92176514 82.36912598 -110.34353027 81.61325195 -110.77807617 80.83447266 C-111.17099854 80.1285498 -111.5639209 79.42262695 -111.96875 78.6953125 C-112.31357422 78.07672363 -112.65839844 77.45813477 -113.01367188 76.82080078 C-113.33916016 76.21993652 -113.66464844 75.61907227 -114 75 C-114.36287109 74.33468262 -114.72574219 73.66936523 -115.09960938 72.98388672 C-116.53579139 69.81945748 -116.42009347 67.42076109 -116 64 C-112.82916627 60.34011272 -109.547584 57.91669046 -105.3359375 55.57421875 C-104.22782715 54.95087646 -103.1197168 54.32753418 -101.97802734 53.68530273 C-101.09881622 53.19790115 -101.09881622 53.19790115 -100.20184326 52.70065308 C-97.04149797 50.94795014 -93.89683443 49.16743415 -90.75 47.390625 C-89.77938126 46.84395424 -89.77938126 46.84395424 -88.78915405 46.28623962 C-82.25923811 42.60075877 -75.81380096 38.78000263 -69.375 34.9375 C-59.40959734 28.99950557 -49.3891228 23.16689783 -39.32739258 17.39379883 C-31.50524412 12.89586775 -23.75118442 8.29460172 -16.05102539 3.59082031 C-14.91395142 2.90004395 -14.91395142 2.90004395 -13.75390625 2.1953125 C-13.09720947 1.79328613 -12.4405127 1.39125977 -11.76391602 0.97705078 C-7.55620123 -1.35364466 -4.60405938 -1.05004863 0 0 Z M-13.94140625 23.7890625 C-15.51075928 24.69603882 -15.51075928 24.69603882 -17.11181641 25.62133789 C-18.25054199 26.28254639 -19.38926758 26.94375488 -20.5625 27.625 C-21.74650041 28.31060646 -22.93058348 28.99607021 -24.11474609 29.68139648 C-34.75097263 35.84087083 -45.36776701 42.03378505 -55.97949219 48.23535156 C-61.23468393 51.30555249 -66.49250535 54.37124491 -71.75 57.4375 C-73.64063661 58.54034468 -75.53126201 59.64320858 -77.421875 60.74609375 C-86.2109375 65.87304688 -86.2109375 65.87304688 -95 71 C-90.86150841 79.66927663 -86.2247166 87.99709704 -81.47094727 96.34057617 C-75.92064854 106.09533787 -70.50966795 115.92448886 -65.11767578 125.76733398 C-64.45867079 126.96729171 -63.79965443 128.16724319 -63.140625 129.3671875 C-62.55829102 130.43050293 -61.97595703 131.49381836 -61.37597656 132.58935547 C-60.21027673 134.87758343 -60.21027673 134.87758343 -59 136 C-49.73275078 137.23540761 -40.27732431 137.41723604 -30.9375 137.6875 C-29.92592457 137.7168117 -29.92592457 137.7168117 -28.89391327 137.74671555 C-10.89525041 138.94715756 -10.89525041 138.94715756 4.87870789 132.11705017 C10.39726776 125.79385545 12.76233403 117.94212112 15 110 C15.99386627 107.58651077 17.06664194 105.23762576 18.18994141 102.88256836 C20.14776056 98.33261552 20.24744196 93.83420172 20.3125 88.9375 C20.34150391 88.23689453 20.37050781 87.53628906 20.40039062 86.81445312 C20.5248399 76.21711831 15.04421254 66.65162195 10.359375 57.42578125 C9.83232971 56.37593552 9.30528442 55.32608978 8.76226807 54.24443054 C7.09718413 50.93089621 5.42375426 47.62166171 3.75 44.3125 C2.611422 42.05041056 1.47339589 39.78804325 0.3359375 37.52539062 C-2.43634038 32.01370069 -5.21546096 26.5055048 -8 21 C-10.0833463 21 -12.21646224 22.7901201 -13.94140625 23.7890625 Z M-177 126 C-177.96693803 127.03578151 -178.8964182 128.10647889 -179.8125 129.1875 C-183.09082209 132.99089216 -186.46038737 136.69466294 -189.875 140.375 C-194.19782377 145.03909934 -198.47817055 149.73694616 -202.72265625 154.47265625 C-205.29809775 157.33082203 -207.89685764 160.16710261 -210.5 163 C-214.58613912 167.44728244 -218.63983404 171.92197676 -222.66796875 176.421875 C-224.38636666 178.32161139 -226.11620452 180.20513806 -227.86328125 182.078125 C-228.353125 182.60535156 -228.84296875 183.13257813 -229.34765625 183.67578125 C-230.73520366 185.1669322 -232.12723768 186.65390459 -233.51953125 188.140625 C-235.99228802 190.99110997 -237.9830025 193.82170091 -240 197 C-232.00308278 207.75043451 -223.85503956 218.37131783 -215.61035156 228.93261719 C-211.71397669 233.93481586 -207.86037495 238.97000814 -204 244 C-202.33390747 246.16710847 -200.66696381 248.33356169 -199 250.5 C-196.46401229 253.79623672 -193.92847012 257.09281289 -191.39453125 260.390625 C-189.70982354 262.58318296 -188.02356525 264.77453271 -186.3359375 266.96484375 C-184.83713507 268.91228436 -183.34201056 270.86256434 -181.8515625 272.81640625 C-181.21992188 273.64011719 -180.58828125 274.46382812 -179.9375 275.3125 C-179.38964844 276.03050781 -178.84179688 276.74851562 -178.27734375 277.48828125 C-177.85582031 277.98714844 -177.43429687 278.48601562 -177 279 C-176.67 279 -176.34 279 -176 279 C-175.93941406 278.39671875 -175.87882812 277.7934375 -175.81640625 277.171875 C-175.69072266 275.97304688 -175.69072266 275.97304688 -175.5625 274.75 C-175.44068359 273.56664062 -175.44068359 273.56664062 -175.31640625 272.359375 C-174.72771414 267.96962151 -174.72771414 267.96962151 -174 266 C-170.49753087 264.83251029 -167.34883636 264.8553952 -163.70556641 264.8581543 C-162.59506424 264.85294266 -162.59506424 264.85294266 -161.46212769 264.84762573 C-159.85305151 264.84027318 -158.24396522 264.83492512 -156.63487625 264.83133507 C-154.07700742 264.82414977 -151.51932824 264.80846345 -148.96151733 264.78999329 C-141.6880774 264.73765247 -134.41473707 264.68965791 -127.14111328 264.67407227 C-122.68945067 264.66390925 -118.23826005 264.63436838 -113.78678513 264.59275246 C-112.10058563 264.58054589 -110.41431911 264.57530201 -108.72807693 264.57755089 C-94.61002023 264.5917332 -81.57355961 263.45541928 -71 253 C-66.70178719 248.44541799 -63.52646641 243.78026026 -60.625 238.25 C-56.37547688 230.38377312 -51.89377464 222.67739872 -47.3125 215 C-41.24897333 204.82964719 -35.29099237 194.60441382 -29.39746094 184.33422852 C-24.8651477 176.45365978 -20.22958823 168.640786 -15.50292969 160.87524414 C-15.03918945 160.11074951 -14.57544922 159.34625488 -14.09765625 158.55859375 C-13.69039307 157.89142334 -13.28312988 157.22425293 -12.86352539 156.53686523 C-11.91835884 155.14850649 -11.91835884 155.14850649 -12 154 C-12.80452701 153.99761165 -13.60905401 153.99522329 -14.43796062 153.99276257 C-34.00929858 153.93363963 -53.58051013 153.85810694 -73.15171337 153.76428509 C-82.61618627 153.71930979 -92.08062138 153.67989913 -101.54516602 153.65356445 C-109.79397654 153.63059841 -118.04266769 153.59721602 -126.29138356 153.55129844 C-130.65947038 153.52734738 -135.02743883 153.50863096 -139.39558983 153.50238609 C-143.50700987 153.49634373 -147.618127 153.47637479 -151.72943497 153.44572449 C-153.23827957 153.43693062 -154.74716375 153.43322448 -156.25603294 153.43499184 C-158.31717241 153.43664382 -160.37738761 153.41995365 -162.43840027 153.39872742 C-163.59156329 153.39411845 -164.74472631 153.38950949 -165.93283367 153.38476086 C-169.37459287 152.95300918 -171.26548631 152.11222192 -174 150 C-174.95168683 147.14493951 -175.1900946 145.09062718 -175.31640625 142.11328125 C-175.35830078 141.17548828 -175.40019531 140.23769531 -175.44335938 139.27148438 C-175.48267578 138.29501953 -175.52199219 137.31855469 -175.5625 136.3125 C-175.60568359 135.32443359 -175.64886719 134.33636719 -175.69335938 133.31835938 C-175.79941654 130.87904454 -175.90147714 128.43962887 -176 126 C-176.33 126 -176.66 126 -177 126 Z " fill="#A6061D" transform="translate(474,188)"/>
<path d="M0 0 C1.52436315 -0.0057178 3.04872204 -0.01268744 4.57307434 -0.02079773 C8.67448342 -0.03858949 12.77567694 -0.03758732 16.87711287 -0.03185534 C20.31854623 -0.02874286 23.75993941 -0.0348787 27.20136702 -0.04089409 C35.32910359 -0.05489202 43.45673495 -0.05341785 51.58447266 -0.04199219 C59.93073782 -0.0305176 68.27668138 -0.04458635 76.62290418 -0.07138866 C83.82506246 -0.09363921 91.02712047 -0.10016203 98.22931063 -0.09431225 C102.51486398 -0.0909635 106.80021134 -0.09321744 111.08573532 -0.11056328 C115.11940985 -0.12618045 119.15261287 -0.1219159 123.18626976 -0.10325813 C124.65385672 -0.09961257 126.1214798 -0.10256062 127.58903313 -0.11314392 C145.55220066 -0.23264649 161.66630841 4.12045544 174.96728516 16.77514648 C179.54443018 21.82501305 182.92078937 27.55324314 186.35009766 33.40405273 C186.86588379 34.27545898 187.38166992 35.14686523 187.91308594 36.04467773 C196.21069011 50.07608692 204.29390153 64.23302036 212.35009766 78.40405273 C215.1430653 77.09426857 217.93451309 75.78139913 220.72509766 74.46655273 C221.57620117 74.06702393 222.42730469 73.66749512 223.30419922 73.25585938 C227.70226081 71.17890683 232.06356204 69.05717368 236.37353516 66.80249023 C237.5658374 66.18361938 237.5658374 66.18361938 238.78222656 65.55224609 C240.29340428 64.7629128 241.79867793 63.96213933 243.296875 63.1484375 C247.81814272 60.79739931 251.13064583 59.83700118 256.35009766 60.40405273 C259.81118455 62.28507822 261.04745019 63.52733588 262.33447266 67.25561523 C263.02204841 73.3544912 259.32717606 78.92280667 256.72509766 84.21655273 C256.12824298 85.46161038 255.53272353 86.70730891 254.93847656 87.95361328 C249.91237897 98.4446908 244.68175399 108.83794198 239.44384766 119.22436523 C236.63273809 124.81377658 233.90845249 130.43988503 231.22509766 136.09155273 C226.08344809 146.91587179 220.84836727 157.69360952 215.60009766 168.46655273 C215.19386169 169.30117035 214.78762573 170.13578796 214.36907959 170.99569702 C212.06003409 175.73901943 209.74308957 180.47835549 207.41918945 185.2144165 C206.37714597 187.34865435 205.34781511 189.48862448 204.32080078 191.63012695 C203.7005824 192.90774239 203.08015284 194.18525534 202.45947266 195.46264648 C201.92805664 196.56793701 201.39664062 197.67322754 200.84912109 198.81201172 C199.35009766 201.40405273 199.35009766 201.40405273 196.35009766 203.40405273 C188.61895225 204.21944151 180.66328678 203.05313148 172.98144531 202.16650391 C171.79793488 202.0347728 170.61442444 201.90304169 169.39505005 201.76731873 C166.18415579 201.40830215 162.97395808 201.043754 159.7640729 200.67584014 C157.07512004 200.36818543 154.38578039 200.06398364 151.69645536 199.75960237 C145.35391426 199.04149128 139.0121909 198.3164499 132.67089844 197.58740234 C126.14013686 196.83673261 119.6079378 196.09964826 113.07492793 195.368828 C107.44735851 194.73871132 101.82088921 194.09935335 96.19518697 193.45277959 C92.84286271 193.06763747 89.49022197 192.68617442 86.13643265 192.31398582 C82.40367775 191.89726569 78.67296613 191.46546028 74.94238281 191.02978516 C73.28408447 190.84959839 73.28408447 190.84959839 71.59228516 190.66577148 C70.5747818 190.54384933 69.55727844 190.42192719 68.50894165 190.29631042 C67.62816767 190.19583499 66.74739368 190.09535955 65.83992958 189.99183941 C61.37322023 188.93736171 58.8848435 187.20617151 56.35009766 183.40405273 C55.8370452 178.68397017 56.55617481 176.20261355 59.35009766 172.40405273 C61.48655354 170.88688022 63.50179668 169.60158529 65.77587891 168.33764648 C66.40108932 167.97687515 67.02629974 167.61610382 67.67045593 167.24440002 C69.66144201 166.09849861 71.66144918 164.96959557 73.66259766 163.84155273 C75.65086743 162.70646834 77.63712319 161.56794802 79.62260437 160.42799377 C80.85492788 159.72202069 82.08919869 159.01943148 83.32575989 158.32090759 C87.12094193 156.16599083 90.74696119 153.86003751 94.35009766 151.40405273 C93.06322329 147.27078027 91.51231887 143.52310773 89.51416016 139.68530273 C88.95035645 138.59894531 88.38655273 137.51258789 87.80566406 136.39331055 C87.20157715 135.24185547 86.59749023 134.09040039 85.97509766 132.90405273 C85.34524568 131.69676478 84.71552728 130.48940713 84.0859375 129.28198242 C78.74433999 119.06198773 73.23353091 108.936499 67.68115234 98.82983398 C65.6409293 95.11162853 63.61285188 91.38719561 61.60009766 87.65405273 C61.26445801 87.03949219 60.92881836 86.42493164 60.58300781 85.79174805 C58.35009766 81.63441397 58.35009766 81.63441397 58.35009766 79.40405273 C57.69009766 79.40405273 57.03009766 79.40405273 56.35009766 79.40405273 C56.13611328 80.18651367 55.92212891 80.96897461 55.70166016 81.77514648 C53.88365844 86.65642856 51.33207189 90.96755133 48.72509766 95.46655273 C44.8011214 102.30621858 40.91536711 109.15945378 37.14306641 116.08374023 C36.61444 117.05194954 36.61444 117.05194954 36.07513428 118.03971863 C34.6792937 120.59697876 33.28356341 123.15420527 31.89984131 125.7180481 C21.98129275 144.08845519 21.98129275 144.08845519 17.35009766 146.40405273 C10.20777236 147.4656239 6.05509959 144.1869971 0.28759766 140.27905273 C-1.6821795 138.98436352 -3.65223948 137.69010451 -5.62255859 136.39624023 C-6.62432129 135.73076172 -7.62608398 135.0652832 -8.65820312 134.37963867 C-13.28287421 131.32571029 -17.96684089 128.36731257 -22.64990234 125.40405273 C-24.48356449 124.23790294 -26.31689698 123.07123462 -28.14990234 121.90405273 C-29.51115234 121.03780273 -29.51115234 121.03780273 -30.89990234 120.15405273 C-33.64990234 118.40405273 -36.39990234 116.65405273 -39.14990234 114.90405273 C-40.05836914 114.32598877 -40.96683594 113.7479248 -41.90283203 113.15234375 C-43.72658762 111.99166887 -45.55015696 110.83070126 -47.37353516 109.66943359 C-52.10188215 106.65860155 -56.83386396 103.65371832 -61.57177734 100.65795898 C-63.03550781 99.73080078 -63.03550781 99.73080078 -64.52880859 98.78491211 C-66.37394738 97.61632421 -68.22020947 96.44950703 -70.06787109 95.28491211 C-87.11195405 84.47994932 -87.11195405 84.47994932 -88.64990234 81.40405273 C-89.51056043 74.60572324 -86.99123615 70.78015431 -83.46240234 65.27905273 C-82.92574951 64.41594482 -82.38909668 63.55283691 -81.83618164 62.66357422 C-80.69827791 60.83571235 -79.55399249 59.01180997 -78.40380859 57.19165039 C-76.67033815 54.43653269 -74.96808116 51.66455139 -73.27490234 48.88452148 C-70.11047117 43.69630458 -66.89942253 38.53937781 -63.64990234 33.40405273 C-63.22580078 32.73164551 -62.80169922 32.05923828 -62.36474609 31.36645508 C-55.56505955 20.69846502 -48.12385581 12.86733897 -36.83740234 7.02905273 C-36.22243896 6.70702881 -35.60747559 6.38500488 -34.97387695 6.05322266 C-23.8596431 0.67334694 -12.15124751 -0.0417234 0 0 Z M-41.64990234 33.40405273 C-44.36529013 37.11581265 -46.75779368 40.99212093 -49.13330078 44.92456055 C-50.63402632 47.37809702 -52.16528974 49.81090708 -53.7053833 52.23988342 C-55.19552541 54.59235616 -56.67606753 56.95078928 -58.15527344 59.31015015 C-58.90098372 60.49662382 -59.64968073 61.68122559 -60.40136719 62.86392212 C-61.4654913 64.54161779 -62.51502714 66.22853926 -63.56396484 67.91577148 C-64.18223145 68.9002124 -64.80049805 69.88465332 -65.4375 70.89892578 C-67.0261822 73.43841529 -67.0261822 73.43841529 -65.64990234 76.40405273 C-64.11768417 77.69757336 -64.11768417 77.69757336 -62.16943359 78.82983398 C-61.42910889 79.28922363 -60.68878418 79.74861328 -59.92602539 80.22192383 C-59.11302979 80.71515137 -58.30003418 81.20837891 -57.46240234 81.71655273 C-55.71462337 82.797965 -53.96724295 83.8800216 -52.22021484 84.96264648 C-51.30401367 85.52709473 -50.3878125 86.09154297 -49.44384766 86.6730957 C-44.88152592 89.49963023 -40.36082034 92.39082481 -35.83740234 95.27905273 C-33.98854606 96.45629635 -32.13958676 97.6333782 -30.29052734 98.81030273 C-26.46645 101.24598684 -22.64378666 103.68387505 -18.82177734 106.12280273 C-9.14460965 112.29474518 0.54044259 118.44422456 10.35009766 124.40405273 C14.60847386 119.6452918 17.32293792 114.13421705 20.28759766 108.52905273 C25.35383416 99.05657422 30.54205766 89.66587997 35.85961914 80.33227539 C36.85842963 78.57756924 37.85135951 76.81950047 38.83789062 75.05786133 C39.90349783 73.18780154 41.00508337 71.33801816 42.13183594 69.50415039 C42.98430908 68.07208252 42.98430908 68.07208252 43.85400391 66.61108398 C44.37937744 65.75619385 44.90475098 64.90130371 45.44604492 64.02050781 C47.0670656 59.32904722 44.50285824 55.66583855 42.48657227 51.43408203 C41.74607545 49.9467067 41.00114559 48.46153241 40.25244141 46.97827148 C39.66095055 45.7959771 39.66095055 45.7959771 39.05751038 44.58979797 C38.22814544 42.93407584 37.39684715 41.27932089 36.5637207 39.62548828 C35.28408636 37.08458053 34.01096624 34.5404881 32.73876953 31.99584961 C31.9312056 30.38563354 31.12327586 28.77560088 30.31494141 27.16577148 C29.93264877 26.40229904 29.55035614 25.6388266 29.15647888 24.85221863 C27.58557146 21.40315426 27.58557146 21.40315426 25.35009766 18.40405273 C22.5943026 18.27786814 19.86504955 18.21533317 17.10791016 18.20092773 C16.26976776 18.19522766 15.43162537 18.18952759 14.56808472 18.18365479 C12.78417224 18.17418162 11.00024208 18.16766166 9.21630859 18.16381836 C6.52099513 18.15421625 3.8264785 18.12326016 1.13134766 18.09155273 C-15.370675 17.98908252 -30.04994393 20.58066121 -41.64990234 33.40405273 Z M46.35009766 18.40405273 C47.62088115 20.94965089 48.89210344 23.49502836 50.16357422 26.0402832 C50.52013092 26.75464035 50.87668762 27.4689975 51.24404907 28.20500183 C54.14331168 34.00747473 57.09510495 39.7805544 60.10009766 45.52905273 C60.60831055 46.50293945 61.11652344 47.47682617 61.64013672 48.48022461 C65.05372321 54.99611552 68.55261419 61.46029727 72.10009766 67.90405273 C77.01021801 76.82426805 81.70333141 85.84507116 86.35009766 94.90405273 C91.06067027 104.0869205 95.82057943 113.2311472 100.78759766 122.27905273 C101.26688721 123.15376221 101.74617676 124.02847168 102.23999023 124.9296875 C104.05908875 128.24497323 105.88112388 131.55852456 107.71533203 134.86547852 C108.99932268 137.18556527 110.26968551 139.51265089 111.53759766 141.84155273 C111.91263428 142.50977051 112.2876709 143.17798828 112.67407227 143.86645508 C114.93433241 148.04887255 116.24402571 151.63081498 116.35009766 156.40405273 C114.44494532 160.38709638 112.48514605 162.30732148 108.68212891 164.48217773 C107.34311523 165.26334961 107.34311523 165.26334961 105.97705078 166.06030273 C104.58389648 166.84920898 104.58389648 166.84920898 103.16259766 167.65405273 C101.31323335 168.71879983 99.4654763 169.78634531 97.61962891 170.85717773 C96.39143433 171.55568848 96.39143433 171.55568848 95.13842773 172.26831055 C94.54827881 172.64310547 93.95812988 173.01790039 93.35009766 173.40405273 C93.35009766 173.73405273 93.35009766 174.06405273 93.35009766 174.40405273 C108.95359846 176.28910284 124.55841961 178.16294111 140.16479492 180.02404785 C142.19852183 180.26667037 144.23221657 180.50956281 146.26586914 180.75280762 C151.24775643 181.34865606 156.23013114 181.93986045 161.2137146 182.5213623 C162.66414418 182.69134034 164.1143668 182.86309504 165.56436157 183.03674316 C172.87019282 183.91023739 179.98949705 184.61366458 187.35009766 184.40405273 C193.85505609 171.46800255 200.23974594 158.47421559 206.60009766 145.46655273 C207.10600433 144.43200958 207.61191101 143.39746643 208.13314819 142.33157349 C211.54268523 135.3576278 214.94828157 128.38176778 218.35009766 121.40405273 C218.72934387 120.62622437 219.10859009 119.848396 219.49932861 119.04699707 C221.56139188 114.81552008 223.61547362 110.58028431 225.66259766 106.34155273 C226.12891602 105.38192627 226.59523438 104.4222998 227.07568359 103.43359375 C229.13341969 99.1522136 230.99245646 94.97202782 232.35009766 90.40405273 C227.08801236 91.98988666 222.42356978 94.34851015 217.64892578 97.01342773 C213.38286533 99.26220379 210.14351261 100.07184844 205.35009766 99.40405273 C202.17646643 96.71466554 200.20825963 93.76901273 198.17041016 90.16967773 C197.57824707 89.13230469 196.98608398 88.09493164 196.37597656 87.02612305 C195.74868652 85.91333984 195.12139648 84.80055664 194.47509766 83.65405273 C193.81231148 82.49051755 193.14872509 81.32743786 192.484375 80.16479492 C191.11442294 77.76666884 189.74694795 75.36715942 188.38134766 72.96655273 C183.12144934 63.73039192 177.77174902 54.54613858 172.35009766 45.40405273 C171.68107422 44.27362549 171.68107422 44.27362549 170.99853516 43.12036133 C164.1115322 31.59058711 156.9940894 23.22182989 143.79980469 19.36672974 C139.13605679 18.22307689 134.68708586 18.13610629 129.90478516 18.17700195 C128.99653488 18.1767099 128.08828461 18.17641785 127.1525116 18.17611694 C124.17660678 18.17750054 121.20095826 18.19301575 118.22509766 18.20874023 C116.15144996 18.21247382 114.07780049 18.21531916 112.00415039 18.21731567 C106.56588813 18.22492493 101.12773394 18.24455005 95.68951416 18.26672363 C90.13237978 18.28724053 84.57522781 18.29632986 79.01806641 18.30639648 C68.1286962 18.32779859 57.23940594 18.36190168 46.35009766 18.40405273 Z " fill="#A6061D" transform="translate(207.64990234375,7.595947265625)"/>
<path d="M0 0 C2.61126473 -0.11596479 5.22081948 -0.19291715 7.83380127 -0.25787354 C8.61977188 -0.29532181 9.40574249 -0.33277008 10.2155304 -0.37135315 C14.00805934 -0.42214537 16.05489179 -0.09900261 19.15167236 2.14764404 C21.77950372 5.68083593 23.59551229 9.20493331 25.38067627 13.21478271 C25.74633698 14.01156433 26.11199768 14.80834595 26.48873901 15.62927246 C27.6884023 18.24951245 28.87234961 20.87654375 30.05645752 23.50384521 C30.89738708 25.3479397 31.73944559 27.19151974 32.58258057 29.03460693 C34.32462534 32.84567383 36.06114011 36.65918891 37.79376221 40.47454834 C40.59460095 46.63476318 43.43473142 52.77640587 46.28123474 58.9156189 C49.25897843 65.33797594 52.22115459 71.76735926 55.176651 78.19998169 C57.29306348 82.80277017 59.42466671 87.39810861 61.5690155 91.98794556 C62.90676667 94.85722629 64.23377651 97.73138507 65.55825806 100.60681152 C66.17320312 101.93569937 66.79272311 103.26248147 67.41720581 104.58691406 C68.27011777 106.39726567 69.10512224 108.21602149 69.93927002 110.03509521 C70.41122803 111.04894287 70.88318604 112.06279053 71.3694458 113.10736084 C72.53736895 116.6379463 72.65299598 119.43141976 72.36895752 123.12884521 C70.74395752 126.00384521 70.74395752 126.00384521 68.36895752 128.12884521 C63.63300249 129.42533591 60.75447508 128.91410045 56.22833252 127.14447021 C54.49776611 126.48318115 54.49776611 126.48318115 52.73223877 125.80853271 C51.53985596 125.33673584 50.34747314 124.86493896 49.11895752 124.37884521 C46.76070941 123.46447519 44.40134938 122.55296725 42.04083252 121.64447021 C40.91483643 121.21070068 39.78884033 120.77693115 38.62872314 120.33001709 C34.26496781 118.72204254 29.84965459 117.36906108 25.36895752 116.12884521 C24.96282227 116.84089111 24.55668701 117.55293701 24.13824463 118.28656006 C22.19495889 121.69268921 20.25096764 125.09841494 18.30645752 128.50384521 C17.94881317 129.13020874 17.59116882 129.75657227 17.22268677 130.4019165 C11.40714057 140.58458672 5.56242214 150.74988826 -0.3168335 160.89593506 C-5.15951626 169.26714347 -9.9024214 177.69288321 -14.63104248 186.12884521 C-13.85287674 186.13471146 -13.074711 186.1405777 -12.27296448 186.1466217 C-4.93095074 186.20458259 2.41072495 186.2766783 9.75243664 186.36456013 C13.52668805 186.40924258 17.30083206 186.4485031 21.07525635 186.47528076 C24.7194293 186.5013354 28.36318847 186.5417523 32.00710487 186.59203148 C33.39567216 186.60868574 34.784311 186.62020902 36.1729641 186.62645912 C38.12146772 186.63611493 40.06983994 186.66588782 42.01812744 186.69647217 C43.6802552 186.71312675 43.6802552 186.71312675 45.3759613 186.7301178 C48.77130445 187.18244594 50.63559366 188.09179943 53.36895752 190.12884521 C55.56931685 193.42938422 55.62521676 194.43930777 55.64984131 198.27737427 C55.6612616 199.34287003 55.67268188 200.40836578 55.68444824 201.50614929 C55.68780182 203.2595034 55.68780182 203.2595034 55.69122314 205.04827881 C55.70611786 206.89494392 55.70611786 206.89494392 55.72131348 208.77891541 C55.7455326 212.15712833 55.76044693 215.53509365 55.76933479 218.91336393 C55.77519901 221.02421988 55.78340908 223.13505416 55.79234314 225.2458992 C55.81968648 231.85122017 55.83902348 238.45649157 55.84674692 245.06186521 C55.85571005 252.68536519 55.89081533 260.30814825 55.94874811 267.93143022 C55.99198341 273.8253779 56.01215547 279.71912387 56.01482916 285.61322844 C56.01692507 289.1331022 56.02873274 292.65230178 56.06446838 296.17200851 C56.10355884 300.09844849 56.09485219 304.02399255 56.08184814 307.95062256 C56.10027771 309.11547684 56.11870728 310.28033112 56.13769531 311.48048401 C56.05845728 319.10055313 56.05845728 319.10055313 54.13658047 321.96676254 C51.40141627 324.42062053 48.73159277 325.75501941 45.07037354 325.74407959 C44.27837051 325.75338501 43.48636749 325.76269043 42.67036438 325.77227783 C41.40935158 325.74768494 41.40935158 325.74768494 40.12286377 325.72259521 C39.23469467 325.7226355 38.34652557 325.72267578 37.43144226 325.72271729 C35.55287601 325.7173692 33.6743098 325.69981684 31.79595947 325.6708374 C28.97125892 325.62942868 26.14898508 325.62973927 23.32403564 325.63665771 C9.93536182 325.59122813 -3.73323324 325.05828911 -15.81854248 318.62884521 C-16.47652832 318.28772705 -17.13451416 317.94660889 -17.81243896 317.59515381 C-32.78618738 309.42303411 -41.20400696 296.12716549 -49.19354248 281.50384521 C-53.89212025 273.00960801 -58.65806068 264.56497961 -63.56854248 256.19134521 C-68.45484063 247.8553713 -73.30997528 239.50273603 -78.13104248 231.12884521 C-82.93936582 222.78074317 -87.77073031 214.44678305 -92.63104248 206.12884521 C-94.35780256 203.16893151 -96.08409926 200.20874805 -97.8102417 197.24847412 C-99.41785724 194.49410145 -101.02863847 191.74160171 -102.63998413 188.9894104 C-104.3288888 186.10093993 -106.01057321 183.2082777 -107.69354248 180.31634521 C-108.31293701 179.26124756 -108.93233154 178.2061499 -109.57049561 177.11907959 C-120.49641058 158.29491283 -126.20279404 140.79675535 -120.50573254 119.24402237 C-118.45860342 111.95797405 -115.17145535 105.34330456 -111.71307373 98.64447021 C-111.04727905 97.32853771 -110.38281097 96.01193328 -109.71958923 94.69470215 C-107.9946519 91.27677192 -106.25337892 87.86745294 -104.5078125 84.46002197 C-102.37761587 80.294429 -100.26644127 76.11917131 -98.15329266 71.94491196 C-96.51264655 68.70455831 -94.86901646 65.46585067 -93.2157135 62.23193359 C-92.33425911 60.50302887 -92.33425911 60.50302887 -91.43499756 58.73919678 C-90.91633621 57.72520813 -90.39767487 56.71121948 -89.86329651 55.66650391 C-88.54950359 53.10078172 -88.54950359 53.10078172 -87.63104248 50.12884521 C-88.3478418 49.86402344 -89.06464111 49.59920166 -89.80316162 49.32635498 C-92.70528546 48.09740588 -95.21172145 46.64744916 -97.87713623 44.96868896 C-98.87342041 44.34373535 -99.86970459 43.71878174 -100.8961792 43.07489014 C-102.46649902 42.0806604 -102.46649902 42.0806604 -104.06854248 41.06634521 C-105.13862549 40.39256836 -106.2087085 39.7187915 -107.31121826 39.02459717 C-110.42085697 37.06409101 -113.52652017 35.09744046 -116.63104248 33.12884521 C-117.44170166 32.61644287 -118.25236084 32.10404053 -119.08758545 31.57611084 C-130.23455691 24.52533079 -130.23455691 24.52533079 -132.63104248 22.12884521 C-133.23789907 18.04635545 -133.2492642 14.30641039 -131.31854248 10.62884521 C-128.02641213 7.70250713 -124.29202612 7.87674367 -120.07562256 7.60394287 C-119.41008897 7.55979405 -118.74455538 7.51564524 -118.0588541 7.47015858 C-115.83965836 7.32392938 -113.62013828 7.18341899 -111.40057373 7.04290771 C-109.83085967 6.94063069 -108.26116808 6.83800844 -106.6914978 6.73506165 C-102.48066955 6.45996377 -98.26953332 6.18989562 -94.05830002 5.92107773 C-89.70553328 5.64268705 -85.35299811 5.36071811 -81.00042725 5.07928467 C-74.9240005 4.68683479 -68.84745473 4.29630762 -62.77077007 3.9078722 C-54.85197287 3.40162212 -46.93379923 2.8874695 -39.01631165 2.36108398 C-34.67795045 2.07311845 -30.339284 1.78998486 -26.0005188 1.50817871 C-24.0811376 1.38259734 -22.16188005 1.25510793 -20.24276733 1.12548828 C-13.49758698 0.671337 -6.75196273 0.33065148 0 0 Z M-10.16815186 18.67962646 C-11.54515762 18.7674086 -11.54515762 18.7674086 -12.94998169 18.85696411 C-15.9584124 19.04934492 -18.96659733 19.24531845 -21.97479248 19.44134521 C-24.07084753 19.57608919 -26.1669171 19.71060735 -28.26300049 19.84490967 C-33.76054333 20.19775961 -39.25788422 20.55366457 -44.75518799 20.91021729 C-50.37254103 21.2740097 -55.99008063 21.63489705 -61.60760498 21.99603271 C-72.61560146 22.70413546 -83.62338668 23.41546746 -94.63104248 24.12884521 C-92.21829989 26.62294295 -89.82937873 28.36234333 -86.84979248 30.16009521 C-85.92553467 30.72341553 -85.00127686 31.28673584 -84.04901123 31.86712646 C-83.08608154 32.44849365 -82.12315186 33.02986084 -81.13104248 33.62884521 C-79.22241916 34.78117335 -77.3160676 35.93727482 -75.41229248 37.09759521 C-74.56731201 37.60741943 -73.72233154 38.11724365 -72.85174561 38.64251709 C-70.77780251 40.03061797 -69.24821584 41.24013142 -67.63104248 43.12884521 C-65.96280947 52.44632673 -71.04854574 60.00904563 -75.21697998 68.00384521 C-75.99876891 69.53788636 -76.77865538 71.07289839 -77.55673218 72.60882568 C-79.60236754 76.63763679 -81.667651 80.65599941 -83.73913574 84.67156982 C-87.0509594 91.09513877 -90.34060337 97.5298965 -93.61491776 103.97265625 C-94.75667738 106.2091786 -95.91169065 108.43846875 -97.06814575 110.66741943 C-104.39791734 124.93613934 -106.94385388 137.07757053 -101.93328857 152.68988037 C-99.80676123 158.30560294 -96.85561751 163.31478821 -93.75604248 168.44134521 C-92.75151476 170.14174071 -91.74699745 171.8421425 -90.7432251 173.54298401 C-89.71783672 175.27583488 -88.68645462 177.00498585 -87.65350342 178.7333374 C-85.11803744 182.99012891 -82.62378045 187.27008207 -80.13348389 191.55340576 C-78.40912179 194.51806898 -76.67663658 197.47787423 -74.94354248 200.43743896 C-72.7293144 204.22742479 -70.54375521 208.03189295 -68.38104248 211.85150146 C-67.87347412 212.74361328 -67.36590576 213.6357251 -66.84295654 214.55487061 C-65.89070409 216.23149011 -64.944424 217.91152026 -64.00506592 219.59539795 C-62.93609002 221.47270949 -61.79142464 223.30661545 -60.63104248 225.12884521 C-59.97104248 225.12884521 -59.31104248 225.12884521 -58.63104248 225.12884521 C-58.2552002 224.47738525 -57.87935791 223.82592529 -57.49212646 223.15472412 C-39.82244873 192.52728271 -39.82244873 192.52728271 -37.97332764 189.32220459 C-36.73464588 187.17511243 -35.49604036 185.02797629 -34.25750732 182.88079834 C-31.14550003 177.48589813 -28.03222225 172.09173934 -24.91619873 166.69915771 C-23.6751996 164.5507859 -22.43431438 162.40234828 -21.19354248 160.25384521 C-20.5788208 159.18940186 -19.96409912 158.1249585 -19.33074951 157.02825928 C-15.72507097 150.77816614 -12.13718581 144.51830566 -8.56599426 138.24847412 C-5.57150308 132.9912947 -2.56746761 127.7396611 0.44219971 122.4911499 C1.72140423 120.25886345 2.99811947 118.02514859 4.27227783 115.78997803 C6.04375523 112.6882601 7.82918686 109.59503409 9.61895752 106.50384521 C10.14376709 105.57926514 10.66857666 104.65468506 11.20928955 103.7020874 C11.70026123 102.86065186 12.19123291 102.01921631 12.69708252 101.15228271 C13.11892822 100.41928955 13.54077393 99.68629639 13.97540283 98.93109131 C15.60540118 96.82305911 16.87701084 96.03667078 19.36895752 95.12884521 C25.40818442 95.42288997 30.72395274 97.54749357 36.30645752 99.69134521 C37.18108643 100.02070068 38.05571533 100.35005615 38.95684814 100.68939209 C41.09670561 101.49622359 43.23387616 102.30947702 45.36895752 103.12884521 C43.05373033 95.31927291 39.67107719 88.12459262 36.16033936 80.8019104 C34.36388316 77.05322161 32.58541641 73.29601769 30.80645752 69.53900146 C30.44034363 68.76649551 30.07422974 67.99398956 29.69702148 67.19807434 C25.75333513 58.85917451 21.92598641 50.46832825 18.11895752 42.06634521 C17.80535278 41.37492432 17.49174805 40.68350342 17.16864014 39.97113037 C13.8731952 32.70315977 10.59815928 25.42652148 7.36895752 18.12884521 C1.49485075 18.06944058 -4.30778212 18.29290579 -10.16815186 18.67962646 Z M-30.36128235 212.58834839 C-30.78030319 213.42671234 -31.19932404 214.26507629 -31.63104248 215.12884521 C-32.26614746 216.13850342 -32.90125244 217.14816162 -33.55560303 218.18841553 C-34.03811523 219.01953857 -34.52062744 219.85066162 -35.01776123 220.70697021 C-35.83663818 222.10689209 -35.83663818 222.10689209 -36.67205811 223.53509521 C-37.21539795 224.47353271 -37.75873779 225.41197021 -38.31854248 226.37884521 C-39.42502507 228.28081296 -40.53305623 230.18188079 -41.64276123 232.08197021 C-42.15371338 232.96175537 -42.66466553 233.84154053 -43.19110107 234.74798584 C-44.41068556 236.76449787 -45.69883235 238.65071956 -47.08807373 240.55072021 C-48.85164261 242.89638766 -48.85164261 242.89638766 -48.40081787 244.96331787 C-47.46265365 247.60255562 -46.22812219 249.91110993 -44.85760498 252.35540771 C-44.28542236 253.37900391 -43.71323975 254.4026001 -43.12371826 255.45721436 C-42.50738525 256.54510254 -41.89105225 257.63299072 -41.25604248 258.75384521 C-40.62552979 259.86944824 -39.99501709 260.98505127 -39.34539795 262.13446045 C-37.45050697 265.47169898 -35.54400279 268.8019357 -33.63104248 272.12884521 C-32.83440186 273.51692383 -32.83440186 273.51692383 -32.02166748 274.93304443 C-23.74531552 289.24514386 -16.47372233 298.87293108 -0.63104248 305.12884521 C11.55060423 308.17734243 11.55060423 308.17734243 37.36895752 307.12884521 C37.36895752 273.46884521 37.36895752 239.80884521 37.36895752 205.12884521 C27.28333252 204.92259521 17.19770752 204.71634521 6.80645752 204.50384521 C3.63334961 204.41280518 0.4602417 204.32176514 -2.809021 204.22796631 C-5.33428725 204.19875057 -7.85960069 204.17327061 -10.38494873 204.15228271 C-12.33926819 204.07554321 -12.33926819 204.07554321 -14.33306885 203.99725342 C-22.69131724 203.98922359 -26.18010079 205.18524614 -30.36128235 212.58834839 Z " fill="#A6061D" transform="translate(132.63104248046875,144.87115478515625)"/>
</svg>
