<svg xmlns="http://www.w3.org/2000/svg" viewBox="0 0 64 64" width="64" height="64">
<rect x="2" y="38" width="56" height="5" rx="1.5" fill="#7d0517"></rect>
<rect x="26" y="33" width="31" height="6" rx="1" fill="#a6071e"></rect>
<path d="M3 39V27q0-2 2-2h8l4-5h5v19z" fill="#a6071e"></path>
<rect x="6" y="24" width="9" height="5" rx="1" fill="#edb3ba"></rect>
<rect x="22" y="13" width="4.5" height="21" rx="1" fill="#7d0517"></rect>
<path d="M24 15 L40 10 L49 19 L49 25" fill="none" stroke="#7d0517" stroke-width="4" stroke-linecap="round" stroke-linejoin="round"></path>
<path d="M49 25 v2.5 q0 3 -3 3" fill="none" stroke="#7d0517" stroke-width="2.6" stroke-linecap="round"></path>
<circle cx="15" cy="48" r="6" fill="#7d0517"></circle><circle cx="15" cy="48" r="2.2" fill="#fff"></circle>
<circle cx="46" cy="48" r="6" fill="#7d0517"></circle><circle cx="46" cy="48" r="2.2" fill="#fff"></circle>
</svg>