<svg viewBox="0 0 760 320" xmlns="http://www.w3.org/2000/svg"><rect width="760" height="320" fill="#0e0e0e"></rect><rect x="32" y="48" width="696" height="26" rx="4" fill="#7d0517"></rect><rect x="50" y="78" width="660" height="174" fill="#a6071e"></rect><rect x="46.0" y="78" width="8" height="174" fill="#7d0517"></rect><rect x="101.0" y="78" width="8" height="174" fill="#7d0517"></rect><rect x="156.0" y="78" width="8" height="174" fill="#7d0517"></rect><rect x="211.0" y="78" width="8" height="174" fill="#7d0517"></rect><rect x="266.0" y="78" width="8" height="174" fill="#7d0517"></rect><rect x="321.0" y="78" width="8" height="174" fill="#7d0517"></rect><rect x="376.0" y="78" width="8" height="174" fill="#7d0517"></rect><rect x="431.0" y="78" width="8" height="174" fill="#7d0517"></rect><rect x="486.0" y="78" width="8" height="174" fill="#7d0517"></rect><rect x="541.0" y="78" width="8" height="174" fill="#7d0517"></rect><rect x="596.0" y="78" width="8" height="174" fill="#7d0517"></rect><rect x="651.0" y="78" width="8" height="174" fill="#7d0517"></rect><rect x="706.0" y="78" width="8" height="174" fill="#7d0517"></rect><rect x="76.0" y="236" width="3" height="11" rx="1.5" fill="#7d0517" opacity="0.55"></rect><rect x="131.0" y="236" width="3" height="11" rx="1.5" fill="#7d0517" opacity="0.55"></rect><rect x="186.0" y="236" width="3" height="11" rx="1.5" fill="#7d0517" opacity="0.55"></rect><rect x="241.0" y="236" width="3" height="11" rx="1.5" fill="#7d0517" opacity="0.55"></rect><rect x="296.0" y="236" width="3" height="11" rx="1.5" fill="#7d0517" opacity="0.55"></rect><rect x="351.0" y="236" width="3" height="11" rx="1.5" fill="#7d0517" opacity="0.55"></rect><rect x="406.0" y="236" width="3" height="11" rx="1.5" fill="#7d0517" opacity="0.55"></rect><rect x="461.0" y="236" width="3" height="11" rx="1.5" fill="#7d0517" opacity="0.55"></rect><rect x="516.0" y="236" width="3" height="11" rx="1.5" fill="#7d0517" opacity="0.55"></rect><rect x="571.0" y="236" width="3" height="11" rx="1.5" fill="#7d0517" opacity="0.55"></rect><rect x="626.0" y="236" width="3" height="11" rx="1.5" fill="#7d0517" opacity="0.55"></rect><rect x="681.0" y="236" width="3" height="11" rx="1.5" fill="#7d0517" opacity="0.55"></rect><text x="77.5" y="182" text-anchor="middle" font-family="Arial, Helvetica, sans-serif" font-weight="700" font-size="50" letter-spacing="0" fill="#ffffff">T</text><text x="132.5" y="182" text-anchor="middle" font-family="Arial, Helvetica, sans-serif" font-weight="700" font-size="50" letter-spacing="0" fill="#ffffff">R</text><text x="187.5" y="182" text-anchor="middle" font-family="Arial, Helvetica, sans-serif" font-weight="700" font-size="50" letter-spacing="0" fill="#ffffff">A</text><text x="242.5" y="182" text-anchor="middle" font-family="Arial, Helvetica, sans-serif" font-weight="700" font-size="50" letter-spacing="0" fill="#ffffff">N</text><text x="297.5" y="182" text-anchor="middle" font-family="Arial, Helvetica, sans-serif" font-weight="700" font-size="50" letter-spacing="0" fill="#ffffff">S</text><text x="352.5" y="182" text-anchor="middle" font-family="Arial, Helvetica, sans-serif" font-weight="700" font-size="50" letter-spacing="0" fill="#ffffff">F</text><text x="407.5" y="182" text-anchor="middle" font-family="Arial, Helvetica, sans-serif" font-weight="700" font-size="50" letter-spacing="0" fill="#ffffff">O</text><text x="462.5" y="182" text-anchor="middle" font-family="Arial, Helvetica, sans-serif" font-weight="700" font-size="50" letter-spacing="0" fill="#ffffff">R</text><text x="517.5" y="182" text-anchor="middle" font-family="Arial, Helvetica, sans-serif" font-weight="700" font-size="50" letter-spacing="0" fill="#ffffff">O</text><text x="572.5" y="182" text-anchor="middle" font-family="Arial, Helvetica, sans-serif" font-weight="700" font-size="50" letter-spacing="0" fill="#ffffff">N</text><text x="627.5" y="182" text-anchor="middle" font-family="Arial, Helvetica, sans-serif" font-weight="700" font-size="50" letter-spacing="0" fill="#ffffff">D</text><text x="682.5" y="182" text-anchor="middle" font-family="Arial, Helvetica, sans-serif" font-weight="700" font-size="50" letter-spacing="0" fill="#ffffff">A</text><rect x="101" y="250" width="18" height="12" fill="#1c0205"></rect><circle cx="110" cy="270" r="13" fill="#1c0205"></circle><circle cx="110" cy="270" r="4.5" fill="#a6071e" opacity="0.5"></circle><rect x="641" y="250" width="18" height="12" fill="#1c0205"></rect><circle cx="650" cy="270" r="13" fill="#1c0205"></circle><circle cx="650" cy="270" r="4.5" fill="#a6071e" opacity="0.5"></circle></svg>