<svg viewBox="0 0 760 320" xmlns="http://www.w3.org/2000/svg"><rect width="760" height="320" fill="#a6071e"></rect><rect x="32" y="48" width="696" height="26" rx="4" fill="none" stroke="#ffffff" stroke-width="5"></rect><rect x="50" y="78" width="660" height="174" fill="none" stroke="#ffffff" stroke-width="5"></rect><rect x="46.0" y="78" width="8" height="174" fill="none" stroke="#ffffff" stroke-width="3"></rect><rect x="101.0" y="78" width="8" height="174" fill="none" stroke="#ffffff" stroke-width="3"></rect><rect x="156.0" y="78" width="8" height="174" fill="none" stroke="#ffffff" stroke-width="3"></rect><rect x="211.0" y="78" width="8" height="174" fill="none" stroke="#ffffff" stroke-width="3"></rect><rect x="266.0" y="78" width="8" height="174" fill="none" stroke="#ffffff" stroke-width="3"></rect><rect x="321.0" y="78" width="8" height="174" fill="none" stroke="#ffffff" stroke-width="3"></rect><rect x="376.0" y="78" width="8" height="174" fill="none" stroke="#ffffff" stroke-width="3"></rect><rect x="431.0" y="78" width="8" height="174" fill="none" stroke="#ffffff" stroke-width="3"></rect><rect x="486.0" y="78" width="8" height="174" fill="none" stroke="#ffffff" stroke-width="3"></rect><rect x="541.0" y="78" width="8" height="174" fill="none" stroke="#ffffff" stroke-width="3"></rect><rect x="596.0" y="78" width="8" height="174" fill="none" stroke="#ffffff" stroke-width="3"></rect><rect x="651.0" y="78" width="8" height="174" fill="none" stroke="#ffffff" stroke-width="3"></rect><rect x="706.0" y="78" width="8" height="174" fill="none" stroke="#ffffff" stroke-width="3"></rect><text x="77.5" y="182" text-anchor="middle" font-family="Arial, Helvetica, sans-serif" font-weight="700" font-size="50" letter-spacing="0" fill="#ffffff">T</text><text x="132.5" y="182" text-anchor="middle" font-family="Arial, Helvetica, sans-serif" font-weight="700" font-size="50" letter-spacing="0" fill="#ffffff">R</text><text x="187.5" y="182" text-anchor="middle" font-family="Arial, Helvetica, sans-serif" font-weight="700" font-size="50" letter-spacing="0" fill="#ffffff">A</text><text x="242.5" y="182" text-anchor="middle" font-family="Arial, Helvetica, sans-serif" font-weight="700" font-size="50" letter-spacing="0" fill="#ffffff">N</text><text x="297.5" y="182" text-anchor="middle" font-family="Arial, Helvetica, sans-serif" font-weight="700" font-size="50" letter-spacing="0" fill="#ffffff">S</text><text x="352.5" y="182" text-anchor="middle" font-family="Arial, Helvetica, sans-serif" font-weight="700" font-size="50" letter-spacing="0" fill="#ffffff">F</text><text x="407.5" y="182" text-anchor="middle" font-family="Arial, Helvetica, sans-serif" font-weight="700" font-size="50" letter-spacing="0" fill="#ffffff">O</text><text x="462.5" y="182" text-anchor="middle" font-family="Arial, Helvetica, sans-serif" font-weight="700" font-size="50" letter-spacing="0" fill="#ffffff">R</text><text x="517.5" y="182" text-anchor="middle" font-family="Arial, Helvetica, sans-serif" font-weight="700" font-size="50" letter-spacing="0" fill="#ffffff">O</text><text x="572.5" y="182" text-anchor="middle" font-family="Arial, Helvetica, sans-serif" font-weight="700" font-size="50" letter-spacing="0" fill="#ffffff">N</text><text x="627.5" y="182" text-anchor="middle" font-family="Arial, Helvetica, sans-serif" font-weight="700" font-size="50" letter-spacing="0" fill="#ffffff">D</text><text x="682.5" y="182" text-anchor="middle" font-family="Arial, Helvetica, sans-serif" font-weight="700" font-size="50" letter-spacing="0" fill="#ffffff">A</text><rect x="101" y="250" width="18" height="12" fill="none" stroke="#ffffff" stroke-width="3"></rect><circle cx="110" cy="270" r="13" fill="none" stroke="#ffffff" stroke-width="4"></circle><rect x="641" y="250" width="18" height="12" fill="none" stroke="#ffffff" stroke-width="3"></rect><circle cx="650" cy="270" r="13" fill="none" stroke="#ffffff" stroke-width="4"></circle></svg>