<?xml version="1.0" encoding="UTF-8"?>
<svg version="1.1" xmlns="http://www.w3.org/2000/svg" width="512" height="512">
<path d="M0 0 C18.28527361 15.89678784 30.51154119 37.14701287 34.52734375 61.1484375 C34.63820313 61.79039063 34.7490625 62.43234375 34.86328125 63.09375 C38.59202708 89.59807844 32.30028685 117.42950131 16.52734375 139.1484375 C13.69151114 142.66320723 10.70692079 145.94382442 7.52734375 149.1484375 C6.70234375 150.0146875 5.87734375 150.8809375 5.02734375 151.7734375 C4.20234375 152.5571875 3.37734375 153.3409375 2.52734375 154.1484375 C1.91890625 154.74011719 1.31046875 155.33179688 0.68359375 155.94140625 C-20.82080725 176.08230356 -48.02088626 181.99254386 -76.54248047 181.28027344 C-98.38489552 180.29752855 -117.63700423 170.47161536 -134.47265625 157.1484375 C-135.13136719 156.64570313 -135.79007813 156.14296875 -136.46875 155.625 C-156.11168401 139.92879869 -167.5030378 113.66550642 -170.29614258 89.16870117 C-172.86773395 59.73589535 -163.76296267 32.63637749 -144.9453125 10.125 C-108.18601744 -32.35077329 -42.43901211 -35.49619669 0 0 Z M-27.53515625 44.2109375 C-28.68221906 45.19149119 -29.82935659 46.17195749 -30.9765625 47.15234375 C-31.55680176 47.65008301 -32.13704102 48.14782227 -32.73486328 48.66064453 C-35.47018783 51.00246355 -38.22183497 53.32486345 -40.97265625 55.6484375 C-42.05607611 56.5650019 -43.13940926 57.48166881 -44.22265625 58.3984375 C-46.38932292 60.23177083 -48.55598958 62.06510417 -50.72265625 63.8984375 C-51.25898682 64.35226807 -51.79531738 64.80609863 -52.34790039 65.27368164 C-53.43037053 66.18959289 -54.51289 67.10544583 -55.59545898 68.02124023 C-58.31740841 70.32398734 -61.03847132 72.62776688 -63.7578125 74.93359375 C-70.96523077 81.04271837 -78.20468022 87.11143398 -85.47265625 93.1484375 C-89.8613366 88.99854088 -93.49016237 84.43672324 -97.16015625 79.6484375 C-97.7730249 78.85687256 -98.38589355 78.06530762 -99.01733398 77.24975586 C-101.85260422 73.58282611 -104.66634288 69.90214662 -107.43359375 66.18359375 C-108.09935425 65.29607422 -108.09935425 65.29607422 -108.77856445 64.390625 C-109.95606522 62.81665856 -111.12295701 61.23477113 -112.2890625 59.65234375 C-115.06169984 56.4729868 -117.48806379 54.39651156 -121.75390625 53.86328125 C-125.83536782 54.27286454 -128.64146359 54.70845723 -131.47265625 57.8359375 C-133.53580601 61.25302929 -134.47265625 63.17275219 -134.47265625 67.1484375 C-132.5577303 71.54972763 -130.1205974 75.13693581 -127.16015625 78.8984375 C-126.51916992 79.71828125 -126.51916992 79.71828125 -125.86523438 80.5546875 C-124.92049827 81.7626669 -123.9736166 82.96897054 -123.02490234 84.17382812 C-120.76340665 87.05067261 -118.51938211 89.94100634 -116.27416992 92.83056641 C-115.07354626 94.37531787 -113.87188623 95.9192644 -112.66918945 97.46240234 C-109.92920374 100.9788612 -107.19685959 104.50017437 -104.49609375 108.046875 C-104.04492188 108.63855469 -103.59375 109.23023438 -103.12890625 109.83984375 C-101.93630206 111.40695474 -100.74730184 112.97680663 -99.55859375 114.546875 C-95.52542678 119.6748659 -95.52542678 119.6748659 -89.66015625 122.1484375 C-85.0521192 122.46185178 -82.03062871 120.96369205 -78.47265625 118.1484375 C-75.71750903 115.74253429 -73.02741475 113.27897773 -70.3515625 110.78515625 C-66.82258086 107.55304959 -63.1350437 104.56111328 -59.4140625 101.5546875 C-56.09877648 98.84258101 -52.84395948 96.0673797 -49.59765625 93.2734375 C-43.45255459 87.98573341 -37.27579751 82.73731658 -31.08154297 77.50732422 C-29.4624913 76.13985205 -27.84434781 74.77131378 -26.2265625 73.40234375 C-25.68894287 72.94762695 -25.15132324 72.49291016 -24.59741211 72.02441406 C-23.52033767 71.11225906 -22.44431494 70.19886064 -21.36938477 69.28417969 C-18.56156299 66.89806417 -15.7346587 64.54169715 -12.87109375 62.22265625 C-12.28134766 61.73925781 -11.69160156 61.25585938 -11.08398438 60.7578125 C-9.96205627 59.83906822 -8.83353488 58.92829097 -7.69726562 58.02734375 C-4.16564246 55.11632188 -2.1555817 52.40217665 -0.47265625 48.1484375 C-0.47265625 42.60934418 -2.80894189 39.99086963 -6.47265625 36.1484375 C-14.93040174 31.91956476 -21.5185005 39.01541343 -27.53515625 44.2109375 Z " fill="#A6061D" transform="translate(323.47265625,42.8515625)"/>
<path d="M0 0 C3.65228536 0.47104241 6.96832662 1.66433105 10.41748047 2.91674805 C21.4948833 6.89709869 32.8186413 9.2637031 44.3359375 11.60546875 C50.60718389 12.88484703 56.80581845 14.39120404 63 16 C57.74833271 22.34541675 51.98166706 28.0147589 46.01367188 33.68359375 C41.16253199 38.41912836 37.33267856 42.41482164 36.8203125 49.4765625 C36.92085938 50.18554688 37.02140625 50.89453125 37.125 51.625 C37.21007812 52.33914063 37.29515625 53.05328125 37.3828125 53.7890625 C38.80974975 58.90074912 41.27145607 61.58564227 45.8125 64.1875 C46.64394531 64.67605469 47.47539062 65.16460937 48.33203125 65.66796875 C57.17337101 70.0821662 67.35959988 70.29674917 76.98046875 68.41796875 C84.8131487 65.69085125 91.17414478 59.69416346 96.1484375 53.19140625 C99.8272137 48.64134095 102.84107732 45.92978752 108.69140625 45.01953125 C115.3146765 44.47426202 121.44938615 44.46840396 127.24609375 47.94921875 C129.875 50.4375 129.875 50.4375 132.3828125 53.203125 C141.86977613 63.3414324 157.0061903 70.05174038 170.140625 73.7421875 C177.45743784 75.94808 183.6495648 79.41258046 190.1875 83.3125 C191.40288682 84.02440937 192.61904995 84.73499486 193.8359375 85.44433594 C196.33358167 86.90222573 198.82716271 88.36672028 201.31787109 89.83642578 C205.93264697 92.55491795 210.58130675 95.21290519 215.22924805 97.87426758 C219.48459929 100.3146545 223.72847058 102.77447223 227.96972656 105.23925781 C229.98067606 106.40772122 231.99303577 107.57376117 234.00683594 108.73730469 C236.802511 110.35605006 239.58986872 111.98819661 242.375 113.625 C243.60573242 114.33414551 243.60573242 114.33414551 244.86132812 115.05761719 C249.77495858 117.97180707 253.37933152 120.75866304 256 126 C256.54317573 130.9509132 256.52241949 134.89488185 254.375 139.4375 C251.25425122 142.80462368 248.6324963 144.66597884 243.99121094 145.25488281 C237.87280143 145.45910209 234.10055623 144.03723626 228.9375 140.875 C228.18581543 140.43704102 227.43413086 139.99908203 226.65966797 139.54785156 C224.09568471 138.04948022 221.54863909 136.52430788 219 135 C215.92200803 133.18846558 212.83993245 131.38409854 209.75610352 129.58251953 C207.72571143 128.39420585 205.69863222 127.20020636 203.67553711 125.99951172 C193.61726525 119.94039479 193.61726525 119.94039479 183 115 C182.01 115.33 181.02 115.66 180 116 C179.26665571 119.97754128 179.26665571 119.97754128 179 124 C180.04160278 124.38720215 180.04160278 124.38720215 181.10424805 124.78222656 C186.26682614 126.9532863 191.04637549 129.87837067 195.90063477 132.65722656 C197.79285527 133.73877157 199.69011768 134.81104776 201.58789062 135.8828125 C218.90995766 145.72904608 218.90995766 145.72904608 223 152 C224.38242317 158.02341524 224.18456076 161.48009468 221 167 C216.35171092 171.30817037 213.15963593 172.50913174 206.92431641 172.4375 C201.21286249 171.58302301 196.56968192 168.43690267 191.6875 165.5 C190.58825195 164.86304199 189.48900391 164.22608398 188.35644531 163.56982422 C183.7447948 160.88299497 179.17604357 158.1339065 174.66015625 155.2890625 C174.06565674 154.91458984 173.47115723 154.54011719 172.85864258 154.15429688 C171.37828061 153.2070809 169.91479735 152.2336217 168.453125 151.2578125 C165.68815905 149.84010703 164.06413849 149.57268817 161 150 C158.80424093 151.82473918 158.80424093 151.82473918 158.52734375 154.390625 C158.74926854 157.21140304 158.74926854 157.21140304 161.31640625 158.921875 C162.38761719 159.52515625 163.45882812 160.1284375 164.5625 160.75 C165.13734131 161.08507568 165.71218262 161.42015137 166.30444336 161.76538086 C168.85965972 163.25149771 171.4413212 164.68870914 174.0234375 166.12744141 C175.38073655 166.88767188 176.73421736 167.65476063 178.08374023 168.42871094 C179.37070139 169.16611348 180.66683953 169.88780072 181.97290039 170.59082031 C186.83977188 173.37863354 188.71635344 176.03627924 191 181 C191.75361683 185.41551419 191.37790226 188.80814867 189.3125 192.8125 C185.8280543 197.61538462 185.8280543 197.61538462 182 199 C172.75724137 200.33172673 166.84777551 197.42893122 159.125 192.625 C157.12898152 191.42738891 155.13163239 190.23199214 153.1328125 189.0390625 C151.83174561 188.23782959 151.83174561 188.23782959 150.50439453 187.42041016 C148.0275288 186.01561343 145.71659007 184.85807704 143 184 C142.01 184.33 141.02 184.66 140 185 C139.67 186.98 139.34 188.96 139 191 C140.54104688 192.0842148 142.08287078 193.16732521 143.625 194.25 C144.53636719 194.89195312 145.44773437 195.53390625 146.38671875 196.1953125 C148.37763532 197.57020556 150.37654917 198.86234152 152.4375 200.125 C155.41291271 202.30213125 156.6525786 203.55658975 158 207 C158.68426057 212.04325384 158.5739862 215.83076884 156.3125 220.4375 C152.5481104 224.60885064 149.84825219 226.18172462 144.234375 226.5703125 C136.15827467 226.48652587 129.96864921 222.08923069 123.3125 218 C122.01497947 217.22696765 120.71615779 216.4561149 119.41601562 215.6875 C116.26194982 213.81655156 113.12649992 211.91674549 110 210 C110 205.56785985 110.77338556 204.17589773 112.95703125 200.421875 C113.88418945 198.80345703 113.88418945 198.80345703 114.83007812 197.15234375 C115.48427734 196.02957031 116.13847656 194.90679687 116.8125 193.75 C125.58520283 179.7676855 125.58520283 179.7676855 126.56640625 163.84375 C124.66399963 156.94309495 120.96307328 151.46180135 114.82421875 147.6484375 C109.94092008 145.30377942 105.37975939 144.39125523 100 144 C100.03480469 143.39414062 100.06960937 142.78828125 100.10546875 142.1640625 C100.36629413 134.09089595 99.41884224 126.65054362 94.3125 120.125 C90.19377606 115.75915262 84.11871222 112.43798167 78.08984375 111.796875 C71.94525629 111.66305458 66.77833797 112.97335954 61 115 C60.6596875 114.41992188 60.319375 113.83984375 59.96875 113.2421875 C55.93603929 106.74265907 51.43463521 101.47821174 44 99 C41.87749355 98.87959396 39.75088413 98.82466181 37.625 98.8125 C36.50351563 98.79832031 35.38203125 98.78414063 34.2265625 98.76953125 C31.02248099 98.83249162 31.02248099 98.83249162 28.3359375 100.07421875 C26 101 26 101 23.85546875 100.890625 C21.31808188 99.6726793 20.66183999 98.19745151 19.3125 95.75 C15.80643604 90.14743469 11.25395365 87.26886572 4.95703125 85.390625 C-2.96320792 83.80973894 -10.13735931 85.47833139 -16.82421875 89.84375 C-21.58278733 93.96006241 -24.20943299 99.87442887 -27.1875 105.3125 C-28.39983035 107.52262266 -29.62197098 109.72740223 -30.85546875 111.92578125 C-31.38809326 112.89942627 -31.92071777 113.87307129 -32.46948242 114.8762207 C-32.97455322 115.57706787 -33.47962402 116.27791504 -34 117 C-37 117 -37 117 -38.47265625 115.70703125 C-40.33573025 113.48690621 -42.17836618 111.25439765 -44 109 C-44.43425293 108.48050781 -44.86850586 107.96101563 -45.31591797 107.42578125 C-46.72768063 105.73462263 -48.11574166 104.02621621 -49.5 102.3125 C-50.18654663 101.4932605 -50.18654663 101.4932605 -50.88696289 100.6574707 C-54.05724014 96.64446924 -54.05724014 96.64446924 -53.79077148 93.64428711 C-52.91022697 90.69980498 -51.7074078 88.31445062 -50.19140625 85.640625 C-49.61463135 84.61654541 -49.03785645 83.59246582 -48.44360352 82.53735352 C-47.51245728 80.91011353 -47.51245728 80.91011353 -46.5625 79.25 C-45.60525024 77.55991821 -45.60525024 77.55991821 -44.62866211 75.83569336 C-40.77647815 69.05331086 -36.87463785 62.30129894 -32.89404297 55.59350586 C-29.10038681 49.19981475 -25.39408024 42.75697504 -21.6875 36.3125 C-16.70748826 27.66323945 -11.69622884 19.03363458 -6.625 10.4375 C-6.07158936 9.49753174 -5.51817871 8.55756348 -4.94799805 7.58911133 C-4.44179932 6.73341553 -3.93560059 5.87771973 -3.4140625 4.99609375 C-2.9701416 4.24513428 -2.5262207 3.4941748 -2.06884766 2.72045898 C-1 1 -1 1 0 0 Z " fill="#A6061D" transform="translate(149,267)"/>
<path d="M0 0 C7.65776276 3.94695261 11.53220401 13.11193643 15.5625 20.25 C16.56392135 22.00788759 17.56743804 23.76456917 18.57093811 25.52127075 C19.2548601 26.71900914 19.93807349 27.91715242 20.62059021 29.11569214 C23.88941873 34.85375779 27.22260479 40.55312456 30.5625 46.25 C35.98196339 55.51392167 41.32365448 64.82071965 46.63415527 74.14733887 C52.02008053 83.60556502 57.47657129 93.02056842 63.02148438 102.38671875 C74.21897779 121.42381155 74.21897779 121.42381155 72.625 131.375 C69.41479442 141.92025632 59.92252857 146.12357116 50.875 151.125 C49.82183594 151.71410156 48.76867187 152.30320312 47.68359375 152.91015625 C39.30323208 157.58981906 34.38971753 158.99573999 24.625 158.375 C14.29109225 155.31310141 8.96761723 143.24907751 4.125 134.5 C3.42693193 133.2560725 2.7277733 132.01275645 2.02758789 130.77001953 C0.59077914 128.2189547 -0.84225637 125.66582725 -2.27294922 123.11132812 C-5.44378441 117.46174773 -8.69158041 111.85666627 -11.9375 106.25 C-13.17852641 104.10164394 -14.4194118 101.95320641 -15.66015625 99.8046875 C-16.27262207 98.74475586 -16.88508789 97.68482422 -17.51611328 96.59277344 C-19.38554076 93.35675371 -21.25359255 90.11994423 -23.12109375 86.8828125 C-24.05163574 85.26983276 -24.05163574 85.26983276 -25.00097656 83.62426758 C-26.24156988 81.47327013 -27.48180939 79.32206858 -28.72167969 77.1706543 C-31.64683524 72.0963498 -34.57620858 67.02462676 -37.52090454 61.9616394 C-38.9104863 59.57184332 -40.29762172 57.18063164 -41.68457031 54.78930664 C-42.66363253 53.10359411 -43.64622606 51.41993413 -44.62890625 49.73632812 C-45.221875 48.71345703 -45.81484375 47.69058594 -46.42578125 46.63671875 C-46.94825439 45.73912842 -47.47072754 44.84153809 -48.0090332 43.91674805 C-51.6452268 37.15063339 -52.79836854 30.63605838 -50.7578125 23.09375 C-46.82372987 14.04187847 -36.74004264 9.65771815 -28.5625 5.0625 C-27.62212891 4.52560547 -26.68175781 3.98871094 -25.71289062 3.43554688 C-17.47720275 -1.23271652 -9.23531172 -4.23944786 0 0 Z " fill="#A6061D" transform="translate(416.375,211.625)"/>
<path d="M0 0 C1.25945202 0.72894544 2.51718854 1.46086073 3.7734375 2.1953125 C4.46791992 2.59137695 5.16240234 2.98744141 5.87792969 3.39550781 C8.04486997 4.63947398 10.19282745 5.91077683 12.3359375 7.1953125 C13.00262451 7.5857373 13.66931152 7.97616211 14.35620117 8.37841797 C19.8987974 11.81709566 23.66346785 15.86540354 25.7734375 22.1953125 C27.61455885 32.57771845 22.73914386 40.52006292 17.7734375 49.1953125 C17.40428223 49.84177734 17.03512695 50.48824219 16.65478516 51.15429688 C14.68775638 54.57176101 12.68062544 57.96390121 10.65625 61.34765625 C7.23628669 67.07290138 3.91294923 72.85321516 0.5859375 78.6328125 C-0.05158447 79.73931152 -0.68910645 80.84581055 -1.34594727 81.98583984 C-2.65453093 84.25718939 -3.96287865 86.52867489 -5.27099609 88.80029297 C-7.17805831 92.11110535 -9.08669206 95.42100511 -10.99609375 98.73046875 C-11.61266846 99.79934326 -12.22924316 100.86821777 -12.86450195 101.96948242 C-14.10285074 104.11479546 -15.34226638 106.25949304 -16.58276367 108.40356445 C-19.49131032 113.43414159 -22.38862158 118.47011763 -25.24353027 123.53131104 C-26.24995167 125.31419943 -27.26014291 127.09489861 -28.27148438 128.875 C-29.535514 131.10252073 -30.79252328 133.33404634 -32.04101562 135.5703125 C-41.79131631 152.6959803 -41.79131631 152.6959803 -50.2265625 155.1953125 C-62.58080085 158.119278 -72.54222744 151.00200302 -82.72290039 144.80297852 C-89.75145509 140.28976226 -95.49108203 136.4017539 -98.2265625 128.1953125 C-99.07167973 121.95856132 -98.53026528 117.10573921 -95.59765625 111.50390625 C-94.77744995 109.93467407 -94.77744995 109.93467407 -93.94067383 108.33374023 C-91.33581636 103.56441354 -88.62555197 98.86797226 -85.8515625 94.1953125 C-84.61343249 92.0918228 -83.37650244 89.98762645 -82.140625 87.8828125 C-81.5002832 86.79226563 -80.85994141 85.70171875 -80.20019531 84.578125 C-76.83364237 78.80784326 -73.5317392 73.00086471 -70.2265625 67.1953125 C-64.69548392 57.48716311 -59.12261553 47.80501574 -53.46069336 38.17236328 C-50.68891798 33.4500207 -47.94514055 28.71604223 -45.27372742 23.93600464 C-43.94214822 21.55420979 -42.60109188 19.17780162 -41.26004028 16.80133057 C-40.31779596 15.12153729 -39.3899816 13.43367519 -38.46264648 11.74560547 C-29.24447995 -4.56709072 -17.0209758 -9.48470565 0 0 Z " fill="#A6061D" transform="translate(121.2265625,214.8046875)"/>
<path d="M0 0 C13.10360398 5.24950796 25.39428519 5.68890331 38.74072266 0.33642578 C39.33884766 0.05669922 39.93697266 -0.22302734 40.55322266 -0.51123047 C43.49072266 -1.76123047 43.49072266 -1.76123047 45.49145508 -1.61645508 C48.2684724 -0.42853327 48.94264136 1.05527847 50.41650391 3.67236328 C50.95782959 4.61772949 51.49915527 5.5630957 52.05688477 6.53710938 C52.92132202 8.09099365 52.92132202 8.09099365 53.80322266 9.67626953 C54.41496338 10.75086426 55.0267041 11.82545898 55.65698242 12.93261719 C56.95503065 15.21307479 58.24811491 17.49636395 59.53662109 19.78222656 C62.62725932 25.24915011 65.78182523 30.67881985 68.92822266 36.11376953 C72.77595417 42.78390725 76.61695748 49.4579099 80.45556641 56.13330078 C81.105979 57.2630835 81.7563916 58.39286621 82.42651367 59.55688477 C83.7034061 61.77549138 84.97867672 63.99503232 86.25219727 66.21557617 C88.92554336 70.86289842 91.61489732 75.48773277 94.46728516 80.02783203 C94.90057129 80.72175049 95.33385742 81.41566895 95.78027344 82.13061523 C96.88910418 83.8900286 98.01710261 85.63732407 99.14697266 87.38330078 C100.49072266 90.23876953 100.49072266 90.23876953 100.52587891 92.69970703 C99.0598148 96.29571333 96.8608114 99.04984986 94.42822266 102.05126953 C93.95578125 102.64875 93.48333984 103.24623047 92.99658203 103.86181641 C91.8359976 105.32720079 90.66443433 106.78387829 89.49072266 108.23876953 C81.4323842 104.32532751 73.63378139 100.11731295 65.92822266 95.55126953 C63.8439894 94.32142107 61.75934793 93.09226416 59.67431641 91.86376953 C58.64419434 91.25662109 57.61407227 90.64947266 56.55273438 90.02392578 C53.6221845 88.31541193 50.6739511 86.64460483 47.71337891 84.98876953 C46.8291626 84.49078857 45.94494629 83.99280762 45.03393555 83.47973633 C43.37012483 82.54521041 41.70148454 81.61921857 40.02758789 80.70288086 C38.13224433 79.63174443 36.30248811 78.445901 34.49072266 77.23876953 C34.49072266 76.24876953 34.49072266 75.25876953 34.49072266 74.23876953 C35.39693359 74.06861328 36.30314453 73.89845703 37.23681641 73.72314453 C47.86633888 71.85175904 47.86633888 71.85175904 57.49072266 67.23876953 C58.79688212 64.72476565 58.79688212 64.72476565 58.49072266 62.23876953 C57.69540581 60.11978406 57.69540581 60.11978406 55.83056641 59.49658203 C52.55206345 59.13534464 50.1680686 60.06948592 47.05322266 61.11376953 C27.91621296 67.45581446 8.1254196 65.23530137 -9.82177734 56.42626953 C-19.79100829 51.28308235 -28.10007606 44.95026278 -36.25927734 37.27783203 C-41.12013528 32.87267953 -46.85462989 33.8614988 -53.13427734 33.73876953 C-54.8803125 33.65755859 -54.8803125 33.65755859 -56.66162109 33.57470703 C-62.42684157 33.48329923 -66.48236588 33.51544142 -70.97021484 37.38330078 C-72.17963134 38.6405203 -73.36129129 39.92521816 -74.50927734 41.23876953 C-75.54764694 42.29800134 -76.58912202 43.35420144 -77.63427734 44.40673828 C-78.10841064 44.90592773 -78.58254395 45.40511719 -79.07104492 45.91943359 C-86.46855672 53.66980583 -91.08343765 57.35048698 -102.00927734 57.73876953 C-109.28321417 57.54315569 -113.38463644 56.18624522 -119.27490234 51.97705078 C-120.50927734 50.23876953 -120.50927734 50.23876953 -120.51953125 47.60473633 C-119.06686004 42.76472231 -116.12716183 40.13995692 -112.57958984 36.64501953 C-111.87462372 35.93526978 -111.16965759 35.22552002 -110.44332886 34.4942627 C-108.94801844 32.99555343 -107.44638954 31.50312553 -105.93896484 30.01660156 C-103.65954406 27.76374183 -101.40777101 25.48575669 -99.15771484 23.20361328 C-85.39427125 9.38869084 -73.37052856 4.2035791 -54.69677734 -0.57373047 C-52.82209554 -1.06660684 -50.94774335 -1.56073867 -49.07373047 -2.05615234 C-30.2535808 -6.99274806 -18.3081851 -7.36719771 0 0 Z " fill="#A6061D" transform="translate(316.50927734375,268.76123046875)"/>
<path d="M0 0 C3.73123331 2.40457258 6.10441629 4.46440306 7.41796875 8.8203125 C9.23807251 19.16426852 2.00828941 28.21227483 -3 36.75 C-4.33919279 39.04259218 -5.67777609 41.33553056 -7.015625 43.62890625 C-7.35775528 44.21422119 -7.69988556 44.79953613 -8.05238342 45.40258789 C-10.51521571 49.62637677 -12.91594768 53.8819674 -15.296875 58.15234375 C-15.96592186 59.3434434 -16.63543062 60.53428373 -17.30541992 61.72485352 C-18.57683651 63.98882106 -19.83788043 66.25865329 -21.0871582 68.53491211 C-24.66218655 74.85752152 -27.20852518 79.10941142 -34.27734375 81.52734375 C-39.33680934 82.13704679 -42.65799951 81.42567336 -47.1875 78.8125 C-51.2853806 74.39110251 -52.63661331 71.39451936 -52.51391602 65.46435547 C-51.48567158 57.11073467 -44.95991509 48.8131139 -40.75 41.6875 C-39.51119692 39.58494279 -38.27293222 37.48206829 -37.03515625 35.37890625 C-36.4023877 34.30398926 -35.76961914 33.22907227 -35.11767578 32.12158203 C-33.1756231 28.7921383 -31.26894589 25.44465261 -29.37109375 22.08984375 C-28.75355225 21.00654785 -28.13601074 19.92325195 -27.49975586 18.80712891 C-26.3182614 16.73255006 -25.14545221 14.65299335 -23.98266602 12.56787109 C-18.51741736 3.02790628 -11.9809825 -4.46350328 0 0 Z " fill="#A6061D" transform="translate(231.1875,390.1875)"/>
<path d="M0 0 C3.49029792 1.97277708 6.19844633 4.39689265 8 8 C9.36307007 17.85356708 6.55953556 24.04794966 1.375 32.25 C0.34830962 33.94205361 -0.67834842 35.63412829 -1.70271301 37.32759094 C-2.75802547 39.06537688 -3.82435263 40.79607971 -4.89111328 42.52685547 C-6.97140802 45.92462645 -8.94486955 49.37752027 -10.90234375 52.84765625 C-11.51835449 53.9346582 -12.13436523 55.02166016 -12.76904297 56.14160156 C-13.93695223 58.20650838 -15.09904492 60.27471938 -16.25439453 62.34667969 C-19.62780742 68.22150814 -22.64039512 73.37451158 -29.2734375 75.84765625 C-35.09999271 76.4433078 -39.24156588 75.51564309 -44 72 C-47.20871315 68.27375247 -48.2794081 63.87876662 -48 59 C-45.48521462 51.00909319 -40.55324465 43.71495841 -36.375 36.5 C-35.65631964 35.25400689 -34.9378151 34.00791234 -34.21948242 32.76171875 C-32.80133866 30.30322602 -31.38022251 27.84648157 -29.95751953 25.390625 C-28.25732284 22.44570961 -26.57497922 19.49186525 -24.90234375 16.53125 C-24.03943782 15.02061888 -23.17619091 13.51018245 -22.3125 12 C-21.75344971 10.99743164 -21.75344971 10.99743164 -21.18310547 9.97460938 C-16.08124951 1.15405694 -9.88102002 -1.48147343 0 0 Z " fill="#A6061D" transform="translate(192,376)"/>
<path d="M0 0 C3.71862855 3.08114937 6.27566434 5.85965842 7.4375 10.625 C7.90498673 18.35748329 2.86035657 25.32482602 -0.8125 31.8125 C-1.3605127 32.80024414 -1.90852539 33.78798828 -2.47314453 34.80566406 C-4.2761866 38.04787681 -6.10206135 41.27602689 -7.9375 44.5 C-8.52281494 45.53970947 -9.10812988 46.57941895 -9.71118164 47.65063477 C-13.25043926 53.74505402 -16.35336764 58.58293382 -22.8125 61.8125 C-27.02269538 62.24261819 -30.69942855 62.2824635 -34.625 60.625 C-38.79263733 57.17181478 -41.55010912 53.83665823 -42.25 48.4375 C-42.1158256 38.46163329 -33.74878434 27.94819715 -28.875 19.5625 C-28.29298828 18.53898437 -27.71097656 17.51546875 -27.11132812 16.4609375 C-20.92454392 5.80021078 -13.95688352 -5.89290637 0 0 Z " fill="#A6061D" transform="translate(258.8125,423.1875)"/>
<path d="M0 0 C3.97824426 2.09470186 6.49872573 4.05507076 8.02734375 8.28125 C9.69409129 18.20577385 5.4646463 25.12951743 0.46484375 33.28125 C-0.24890083 34.48570413 -0.96050325 35.69143034 -1.66992188 36.8984375 C-3.73069757 40.38494399 -5.84391225 43.83577787 -7.97265625 47.28125 C-8.95794312 48.87996948 -8.95794312 48.87996948 -9.96313477 50.51098633 C-16.05483205 60.25626356 -16.05483205 60.25626356 -20.97265625 62.28125 C-25.65564016 62.91571879 -29.56430192 62.9105147 -33.91015625 60.96875 C-37.61861843 57.93455367 -39.55177703 56.13683562 -40.28125 51.1875 C-40.5505955 46.15971731 -39.9866193 42.71948415 -37.44921875 38.33984375 C-36.63167114 36.90584229 -36.63167114 36.90584229 -35.79760742 35.44287109 C-35.19537354 34.39953613 -34.59313965 33.35620117 -33.97265625 32.28125 C-33.00391177 30.53565529 -32.03526413 28.79000319 -31.07038879 27.04226685 C-29.71234905 24.59050478 -28.33631837 22.14907668 -26.95874023 19.70825195 C-26.25389583 18.4549582 -25.5531077 17.19937538 -24.85620117 15.94165039 C-23.83063708 14.09210435 -22.79180627 12.25059108 -21.75 10.41015625 C-21.14406006 9.32806885 -20.53812012 8.24598145 -19.91381836 7.13110352 C-15.23605314 0.26359586 -8.08903634 -2.94729245 0 0 Z " fill="#A6061D" transform="translate(153.97265625,362.71875)"/>
</svg>
